<?xml version="1.0" encoding="UTF-8" standalone="no"?>
<!-- Created with Inkscape (http://www.inkscape.org/) -->

<svg
   width="240px"
   height="200px"
   viewBox="0 0 240 200"
   version="1.1"
   id="SVGRoot"
   sodipodi:docname="robo-tile200.svg"
   inkscape:version="1.2.2 (732a01da63, 2022-12-09)"
   xmlns:inkscape="http://www.inkscape.org/namespaces/inkscape"
   xmlns:sodipodi="http://sodipodi.sourceforge.net/DTD/sodipodi-0.dtd"
   xmlns="http://www.w3.org/2000/svg"
   xmlns:svg="http://www.w3.org/2000/svg">
  <sodipodi:namedview
     id="namedview5644"
     pagecolor="#ffffff"
     bordercolor="#000000"
     borderopacity="0.25"
     inkscape:showpageshadow="2"
     inkscape:pageopacity="0.0"
     inkscape:pagecheckerboard="0"
     inkscape:deskcolor="#d1d1d1"
     inkscape:document-units="px"
     showgrid="false"
     inkscape:zoom="2.0510461"
     inkscape:cx="171.13218"
     inkscape:cy="79.715417"
     inkscape:window-width="1920"
     inkscape:window-height="1001"
     inkscape:window-x="-9"
     inkscape:window-y="-9"
     inkscape:window-maximized="1"
     inkscape:current-layer="layer1" />
  <defs
     id="defs5639" />
  <g
     inkscape:label="Layer 1"
     inkscape:groupmode="layer"
     id="layer1">
    <g
       transform="matrix(0.06666668,0,0,0.06666668,84.907862,61.920562)"
       id="g2670">
      <g
         transform="matrix(0.1,0,0,-0.1,0,1080)"
         id="g2668">
        <path
           d="m 5731,10273 c -24,-9 -45,-23 -48,-32 -2,-9 -23,-29 -47,-44 -185,-117 -227,-306 -108,-485 31,-47 80,-93 131,-121 11,-7 11,-12 0,-29 -11,-18 -10,-29 5,-71 16,-45 17,-70 10,-228 -4,-98 -8,-333 -8,-523 v 0 l -1,-345 -65,-7 c -348,-36 -412,-44 -473,-61 -29,-8 -106,-23 -172,-32 -102,-15 -140,-27 -258,-77 -76,-32 -170,-70 -210,-85 -97,-35 -184,-79 -195,-100 -9,-15 -19,-9 -76,44 -198,186 -486,261 -792,208 -370,-65 -750,-333 -1008,-714 -187,-275 -296,-615 -296,-926 0,-330 151,-656 374,-810 31,-21 56,-42 56,-47 0,-5 -14,-26 -30,-47 -21,-25 -33,-56 -40,-94 -5,-31 -14,-66 -21,-79 -11,-20 -21,-66 -49,-227 -5,-29 -16,-64 -24,-76 -17,-26 -46,-131 -46,-168 0,-13 -25,-90 -55,-171 -35,-94 -55,-161 -55,-189 0,-24 -7,-66 -14,-93 -8,-27 -24,-114 -35,-194 -11,-80 -32,-200 -46,-268 -14,-67 -27,-148 -30,-180 v 0 l -4,-57 9,55 c 13,70 22,89 15,31 -3,-24 -8,-123 -11,-220 -6,-184 -27,-384 -41,-388 -4,-2 -7,-88 -5,-193 2,-141 -1,-190 -9,-190 -8,0 -6,-7 4,-18 12,-13 20,-52 27,-138 5,-65 17,-168 25,-229 8,-60 15,-129 15,-153 0,-36 6,-49 32,-75 18,-18 34,-43 36,-57 8,-60 78,-126 178,-169 104,-45 214,-103 262,-138 24,-17 66,-36 94,-42 28,-6 67,-24 87,-40 52,-41 70,-48 133,-56 44,-6 68,-16 102,-42 31,-24 75,-43 146,-64 56,-16 123,-41 150,-54 54,-27 157,-55 207,-55 27,0 132,-31 368,-108 294,-97 323,-102 690,-117 182,-7 353,-18 380,-24 40,-8 320,-15 895,-23 243,-3 1001,29 1243,52 54,6 138,10 187,10 85,0 246,13 555,45 77,8 165,15 195,15 67,0 166,18 330,60 69,17 158,35 198,40 80,9 105,24 121,74 12,35 43,194 59,301 6,39 17,104 23,145 21,126 28,1871 8,1944 -6,23 -17,77 -24,121 -7,44 -22,130 -33,190 -12,61 -26,146 -32,190 -6,44 -17,112 -25,150 -7,39 -19,115 -26,170 -7,54 -23,147 -37,205 -14,58 -26,139 -27,180 -1,41 -7,113 -14,160 -6,47 -16,121 -22,165 -9,72 -63,230 -186,550 -8,22 -29,78 -45,125 -42,119 -219,474 -269,540 -22,30 -52,77 -66,105 -14,27 -40,66 -57,86 -17,20 -43,52 -59,70 -73,89 -443,480 -459,484 -9,4 -52,35 -95,71 -43,36 -116,90 -163,122 -47,31 -116,82 -153,114 -38,31 -87,63 -110,71 -23,8 -64,28 -91,46 -28,17 -56,31 -63,31 -18,0 -76,30 -70,36 2,2 26,-5 52,-16 26,-11 50,-19 52,-17 8,9 -97,46 -113,40 -12,-4 -15,-3 -10,5 4,7 2,10 -6,7 -16,-6 -93,37 -89,49 4,14 -200,112 -260,125 -41,9 -110,40 -120,54 -1,1 -5,270 -8,597 -6,468 -10,601 -21,622 -13,27 -11,29 32,70 57,55 93,116 114,198 42,165 -21,312 -167,385 -118,60 -310,83 -408,48 z m 309,-125 c 108,-50 164,-132 163,-238 0,-111 -63,-203 -172,-254 -37,-17 -66,-21 -141,-21 -82,0 -103,4 -151,26 -156,73 -228,222 -168,346 25,51 92,112 162,148 48,25 60,26 152,23 81,-4 111,-9 155,-30 z m -245,-603 c 77,-19 146,-19 218,0 32,8 60,15 62,15 18,0 26,-172 30,-670 3,-311 6,-577 6,-591 3,-48 -10,-75 -53,-105 -84,-59 -260,-96 -315,-66 -13,7 -30,27 -39,44 -14,27 -15,41 -5,97 10,60 27,408 28,556 0,33 0,155 1,270 1,116 -2,239 -8,275 -11,75 -13,174 -3,183 8,9 7,9 78,-8 z M 5602,8245 c -6,-55 34,-143 79,-175 16,-12 29,-26 29,-32 0,-6 -29,-70 -64,-142 -69,-140 -127,-276 -180,-421 -26,-72 -49,-112 -117,-201 -46,-61 -104,-147 -128,-190 -25,-44 -52,-88 -62,-99 -33,-37 -93,-228 -125,-392 v 0 l -17,-93 -18,41 c -16,34 -23,40 -45,37 -64,-7 -115,-130 -69,-164 29,-21 51,-17 91,18 v 0 l 37,33 -6,-55 c -3,-30 -1,-113 5,-185 10,-127 10,-132 -17,-220 -14,-49 -30,-108 -35,-130 -5,-22 -24,-101 -44,-175 -19,-74 -40,-175 -46,-225 -20,-169 -41,-300 -55,-350 -21,-77 -34,-157 -50,-320 -8,-82 -19,-181 -24,-220 -5,-38 -14,-117 -20,-175 -7,-58 -21,-166 -32,-240 -11,-74 -24,-184 -30,-245 -15,-161 -10,-594 9,-868 10,-131 14,-241 10,-243 -7,-5 -180,16 -333,40 -49,8 -137,19 -195,26 -272,31 -664,96 -925,155 -142,31 -248,52 -360,69 -225,35 -524,108 -628,153 v 0 l -57,26 v 76 c 0,42 5,114 10,161 6,47 14,186 19,310 6,124 19,286 29,360 11,74 25,182 32,240 6,58 20,144 31,192 10,48 19,102 19,119 0,17 23,91 51,165 28,74 55,164 60,200 5,36 18,83 29,104 18,36 37,111 61,244 4,28 15,70 23,95 8,26 20,65 26,89 6,24 20,52 31,63 10,10 19,26 19,34 0,20 6,19 79,-10 34,-14 114,-34 179,-45 64,-11 160,-29 212,-40 52,-10 118,-22 145,-26 28,-4 58,-11 68,-16 11,-5 67,-16 125,-24 108,-14 148,-22 347,-68 120,-28 249,-34 305,-14 155,53 390,357 594,766 26,51 57,121 70,155 13,34 42,110 64,169 22,59 52,149 66,200 29,109 66,345 67,432 0,34 6,79 13,101 16,54 0,134 -48,230 -46,93 -79,122 -287,254 -231,147 -262,170 -249,186 11,14 150,75 168,75 6,0 74,27 152,60 136,58 197,74 355,94 28,4 79,13 115,21 36,8 103,19 150,24 47,6 117,14 155,19 39,5 86,10 106,10 v 0 l 37,2 z m 679,-21 c 66,-17 178,-73 219,-109 14,-13 45,-33 70,-45 25,-13 57,-31 72,-42 15,-10 51,-27 80,-37 47,-17 107,-43 162,-73 11,-6 60,-43 110,-82 50,-40 147,-112 215,-161 71,-51 168,-133 227,-193 57,-57 104,-101 104,-98 0,3 19,-15 41,-39 23,-25 48,-45 57,-45 22,0 62,-48 62,-74 0,-13 15,-42 33,-66 17,-23 50,-71 72,-105 22,-34 57,-82 78,-107 20,-25 37,-49 37,-54 0,-13 129,-244 166,-296 58,-82 112,-199 179,-383 20,-55 55,-147 77,-205 98,-259 117,-322 127,-435 11,-111 30,-227 57,-345 22,-100 54,-300 54,-345 0,-22 5,-60 11,-85 17,-76 37,-200 49,-315 7,-60 20,-136 31,-168 10,-31 19,-79 19,-105 0,-27 7,-70 16,-96 15,-43 16,-107 12,-594 -4,-515 -6,-546 -23,-558 -22,-16 -178,-66 -280,-90 -124,-29 -189,-46 -240,-64 -27,-10 -84,-21 -125,-24 -87,-7 -212,-23 -290,-36 -54,-9 -301,-33 -470,-45 -47,-3 -128,-14 -180,-23 -78,-13 -159,-16 -445,-15 -485,2 -806,10 -898,22 -44,6 -161,17 -260,26 -368,30 -394,33 -679,76 -46,7 -68,16 -73,27 -17,44 -37,428 -38,737 -2,336 2,396 38,635 8,52 20,147 26,210 7,63 16,142 20,175 4,33 15,132 23,220 16,160 29,243 47,301 10,32 35,164 49,254 4,30 15,105 24,165 15,100 71,342 97,423 v 0 l 11,34 38,-94 c 131,-324 368,-520 700,-578 36,-6 97,-22 135,-35 39,-13 113,-33 165,-44 52,-12 161,-38 242,-57 114,-28 176,-37 275,-41 v 0 l 128,-5 120,67 c 129,71 228,158 302,263 21,30 50,69 65,86 36,43 195,281 219,328 10,21 19,45 19,53 0,9 13,58 29,108 144,446 146,455 146,747 0,129 -4,264 -8,300 -5,36 -10,72 -11,81 -1,9 -9,27 -17,40 -9,13 -26,45 -38,71 -14,30 -42,62 -74,88 -29,22 -56,43 -62,48 -12,9 -222,130 -311,179 -34,18 -67,40 -74,48 -6,7 -28,19 -48,26 -20,7 -60,27 -89,45 -125,80 -250,124 -402,144 -165,21 -368,-10 -555,-86 -19,-7 -19,-7 -3,16 21,30 21,35 1,54 -26,27 -79,20 -119,-15 -19,-17 -35,-39 -35,-50 0,-23 35,-42 66,-36 13,2 24,3 24,2 0,-1 -40,-25 -88,-54 -48,-28 -124,-80 -167,-115 -44,-35 -81,-63 -83,-61 -5,5 109,274 157,368 70,136 85,152 157,167 157,31 253,76 309,142 14,16 25,38 25,49 0,23 11,24 91,3 z m -2525,-35 c 116,-20 220,-61 309,-122 47,-31 145,-129 139,-139 -3,-4 1,-8 10,-8 21,0 92,-113 127,-203 59,-154 64,-185 64,-402 0,-176 -3,-211 -24,-295 -100,-401 -335,-760 -656,-1000 -111,-83 -316,-184 -440,-216 -134,-35 -317,-43 -435,-20 -88,18 -182,50 -203,69 -6,7 -28,19 -47,28 -52,25 -141,102 -193,168 -169,215 -233,518 -178,843 63,365 285,746 580,992 167,139 428,266 621,301 92,16 246,19 326,4 z m 722,-401 c 25,-18 58,-46 73,-61 16,-16 34,-30 41,-31 22,-4 171,-100 238,-153 27,-22 28,-26 35,-154 6,-112 4,-149 -14,-248 -17,-95 -34,-191 -63,-361 -2,-8 -8,-21 -15,-28 -7,-7 -26,-59 -43,-115 -54,-179 -109,-308 -175,-412 -17,-27 -45,-78 -62,-111 -28,-57 -74,-129 -189,-294 -48,-69 -124,-151 -214,-229 v 0 l -55,-48 -88,17 c -49,10 -94,23 -100,29 -6,6 -35,11 -64,11 -29,0 -76,9 -105,19 -29,11 -75,23 -103,26 -27,4 -72,13 -99,21 -27,8 -75,14 -105,14 -74,0 -98,15 -41,25 118,20 302,106 460,216 100,70 274,235 352,334 127,161 247,378 298,540 72,230 83,291 84,515 1,207 -12,289 -66,415 -16,39 -32,76 -35,83 -8,20 7,14 55,-20 z m 1440,5 c -4,-23 -75,-50 -90,-35 -9,9 -4,13 20,18 18,4 32,13 32,20 0,8 9,14 21,14 14,0 19,-5 17,-17 z m 694,-64 c 261,-66 463,-257 547,-516 77,-239 66,-563 -29,-854 -92,-282 -303,-586 -519,-750 -86,-65 -283,-162 -396,-195 -120,-35 -331,-45 -449,-20 -164,34 -274,94 -402,221 -133,131 -207,272 -252,475 -23,105 -23,364 1,483 98,489 449,931 869,1095 141,54 170,63 263,78 104,17 263,10 367,-17 z m 638,-334 c 36,-23 90,-55 120,-70 85,-43 107,-63 136,-128 32,-73 43,-160 45,-362 2,-137 -3,-183 -30,-315 -9,-43 -62,-196 -95,-272 -9,-21 -16,-50 -16,-65 -1,-15 -10,-53 -21,-83 -11,-30 -31,-89 -43,-130 -25,-81 -119,-256 -207,-385 -61,-89 -232,-278 -312,-343 -78,-63 -113,-77 -162,-63 -22,6 -67,16 -100,21 -33,6 -82,16 -110,24 v 0 l -50,14 50,2 50,3 -50,8 c -27,4 -115,16 -195,26 -132,16 -141,18 -100,26 154,28 372,125 510,228 239,177 462,459 561,711 35,89 87,299 100,401 15,130 7,327 -19,442 -23,96 -98,287 -134,338 -24,33 -24,33 72,-28 z m -16,-570 c 1,-151 -3,-207 -18,-275 -42,-192 -122,-385 -225,-542 -61,-95 -76,-103 -21,-13 98,160 175,348 218,530 23,97 26,132 26,300 1,105 -2,215 -6,245 v 0 l -6,55 15,-55 c 12,-40 16,-106 17,-245 z m 882,-48 c 37,-72 25,-66 -19,10 -20,36 -30,60 -21,53 8,-8 27,-36 40,-63 z M 4960,6501 c 0,-21 -23,-44 -33,-34 -11,10 -8,38 5,51 14,14 28,6 28,-17 z m -34,-69 c -10,-2 -22,0 -28,6 -6,6 0,7 19,4 21,-5 23,-7 9,-10 z M 2232,3160 c 84,-52 222,-92 576,-166 90,-18 167,-36 171,-38 4,-3 68,-12 142,-21 74,-9 184,-25 244,-35 61,-10 178,-26 260,-34 225,-24 397,-46 520,-67 61,-10 169,-25 240,-34 72,-8 169,-22 217,-31 v 0 l 87,-16 5,-52 c 3,-28 8,-77 11,-109 v 0 l 5,-59 -27,6 c -16,3 -77,10 -138,16 -113,11 -305,36 -385,50 -25,4 -113,17 -196,28 -83,12 -189,31 -235,42 -116,30 -146,37 -289,60 -69,11 -170,31 -225,44 -186,45 -242,56 -331,62 -49,3 -127,16 -174,29 -47,13 -125,31 -174,40 -49,9 -128,32 -175,51 -47,19 -105,37 -128,41 -25,3 -45,12 -49,22 -10,24 -18,201 -9,201 4,0 30,-14 57,-30 z m 353,-80 c 61,-15 222,-47 300,-60 125,-21 269,-49 300,-59 47,-16 -108,-2 -180,15 -33,8 -103,24 -155,34 -150,30 -323,70 -328,75 -8,8 19,5 63,-5 z m 672,-136 c -3,-3 -12,-4 -19,-1 -8,3 -5,6 6,6 11,1 17,-2 13,-5 z m -924,-84 c 40,-15 133,-42 207,-58 74,-17 148,-36 165,-42 16,-6 65,-16 110,-21 79,-10 284,-56 460,-104 50,-13 138,-31 196,-40 58,-9 144,-25 190,-36 160,-38 272,-59 403,-74 72,-9 201,-29 286,-45 85,-16 198,-32 250,-36 52,-4 104,-10 116,-15 27,-9 39,-69 59,-284 9,-88 22,-218 31,-290 8,-71 18,-154 21,-182 v 0 l 5,-53 -103,1 c -307,1 -484,21 -634,69 -33,11 -78,24 -100,29 -22,6 -107,33 -190,61 -87,29 -192,57 -249,65 -67,11 -125,27 -175,50 -42,18 -109,43 -150,54 -41,12 -96,36 -125,56 -55,38 -103,55 -153,55 -23,0 -45,11 -78,40 -25,22 -48,40 -49,40 -35,0 -115,26 -137,44 -30,26 -204,116 -282,147 -64,25 -117,66 -117,90 0,11 -8,27 -17,37 -24,24 -40,75 -48,152 -4,36 -13,116 -21,178 -20,162 -21,156 22,148 19,-4 68,-20 107,-36 z m 6377,-60 v -50 h -42 c -24,0 -69,-12 -107,-29 -68,-29 -251,-82 -356,-101 -33,-7 -82,-18 -110,-25 -27,-8 -99,-19 -160,-25 -60,-6 -138,-18 -173,-26 -35,-8 -83,-14 -108,-14 -25,0 -95,-11 -157,-25 -62,-14 -156,-31 -210,-39 -54,-8 -105,-20 -113,-26 -9,-8 -60,-12 -151,-12 -76,0 -179,-6 -229,-14 -165,-26 -873,-19 -1040,11 -16,3 -196,12 -400,20 -370,15 -532,27 -553,39 -6,4 -11,33 -12,64 0,31 -4,82 -8,112 -5,30 -8,56 -7,56 0,1 46,-5 101,-12 55,-8 145,-18 200,-23 55,-6 136,-15 180,-20 44,-6 148,-16 230,-22 83,-6 200,-17 260,-26 69,-9 214,-16 390,-18 154,-1 417,-6 585,-10 262,-7 313,-5 360,8 30,9 78,18 105,22 93,11 310,28 380,30 39,1 113,8 165,17 96,16 226,32 355,44 39,3 90,14 115,24 67,26 153,50 182,50 13,0 69,13 124,29 105,31 132,37 177,40 26,1 27,-1 27,-49 z m 15,-232 c 13,-225 11,-269 -26,-508 -34,-214 -50,-274 -74,-277 -23,-3 -169,-38 -340,-82 -118,-30 -473,-65 -780,-76 -82,-3 -190,-10 -240,-15 -369,-39 -722,-60 -1023,-60 -95,0 -215,-5 -267,-11 -71,-7 -110,-7 -157,2 -43,9 -186,13 -448,13 -230,1 -391,5 -400,11 -8,5 -25,8 -37,7 -25,-4 -25,-2 -48,183 -9,72 -22,173 -30,225 -7,52 -10,99 -6,103 5,4 4,31 -1,60 -5,29 -13,77 -17,107 -5,30 -12,71 -16,91 v 0 l -7,36 54,-9 c 29,-5 175,-13 323,-18 149,-6 293,-15 320,-20 78,-16 868,-24 1145,-11 305,13 610,50 860,105 121,26 365,67 510,86 112,15 408,84 540,126 58,18 117,33 132,33 v 0 l 27,1 z m -5340,68 c 39,-8 92,-17 118,-21 27,-3 47,-9 44,-12 -7,-6 -207,24 -238,36 -35,14 -4,13 76,-3 z m 208,-43 c -7,-2 -19,-2 -25,0 -7,3 -2,5 12,5 14,0 19,-2 13,-5 z m 44,-9 c -3,-3 -12,-4 -19,-1 -8,3 -5,6 6,6 11,1 17,-2 13,-5 z m 120,-30 c -3,-3 -12,-4 -19,-1 -8,3 -5,6 6,6 11,1 17,-2 13,-5 z m 46,-11 c -7,-2 -19,-2 -25,0 -7,3 -2,5 12,5 14,0 19,-2 13,-5 z m 162,-19 c 39,-4 97,-13 130,-20 v 0 l 60,-14 -75,5 c -83,6 -250,34 -250,42 0,3 15,3 33,0 17,-3 64,-9 102,-13 z m 232,-40 c -3,-3 -12,-4 -19,-1 -8,3 -5,6 6,6 11,1 17,-2 13,-5 z m 265,-34 c 133,-14 252,-31 258,-37 11,-12 -221,9 -320,29 -105,20 -153,37 -73,24 23,-3 83,-10 135,-16 z m 633,-69 c 88,-5 279,-15 425,-21 305,-13 407,-27 205,-29 -71,0 -179,6 -240,14 -60,8 -175,15 -255,15 -163,0 -360,15 -405,30 -33,11 -17,10 270,-9 z m 1793,-38 c -16,-2 -40,-2 -55,0 -16,2 -3,4 27,4 30,0 43,-2 28,-4 z"
           stroke="none"
           fill="#000000"
           fill-rule="nonzero"
           id="path2598" />
        <path
           d="m 5363,7889 c -29,-11 -64,-67 -61,-98 6,-52 68,-53 119,-1 37,37 36,52 -4,82 -24,19 -38,23 -54,17 z m 37,-47 23,-19 -31,-21 c -55,-40 -81,-20 -46,33 19,30 25,30 54,7 z"
           stroke="none"
           fill="#000000"
           fill-rule="nonzero"
           id="path2600" />
        <path
           d="m 5132,7247 c -17,-18 -37,-47 -43,-65 -10,-28 -9,-36 6,-52 27,-30 72,-26 106,11 37,40 48,93 24,119 -26,29 -57,25 -93,-13 z m 72,-41 c -17,-57 -84,-90 -84,-40 0,34 58,88 77,72 8,-6 11,-19 7,-32 z"
           stroke="none"
           fill="#000000"
           fill-rule="nonzero"
           id="path2602" />
        <path
           d="m 4701,5904 c -26,-34 -27,-68 -1,-94 23,-23 30,-24 63,-9 47,21 61,88 25,113 -33,23 -64,19 -87,-10 z m 74,-24 c 9,-14 -13,-50 -31,-50 -17,0 -28,24 -20,45 6,17 42,20 51,5 z"
           stroke="none"
           fill="#000000"
           fill-rule="nonzero"
           id="path2604" />
        <path
           d="m 4475,5343 c -62,-15 -89,-99 -40,-121 56,-26 102,-1 112,60 9,57 -12,75 -72,61 z m 37,-68 c -9,-19 -19,-25 -42,-25 -50,0 -38,51 15,62 30,7 40,-8 27,-37 z"
           stroke="none"
           fill="#000000"
           fill-rule="nonzero"
           id="path2606" />
        <path
           d="m 4296,4726 c -31,-41 -33,-67 -6,-91 22,-20 63,-14 93,12 25,23 22,78 -5,97 -34,24 -53,19 -82,-18 z m 72,-34 c 3,-16 -4,-25 -23,-32 -47,-18 -61,8 -22,41 27,22 41,20 45,-9 z"
           stroke="none"
           fill="#000000"
           fill-rule="nonzero"
           id="path2608" />
        <path
           d="m 4250,3991 c -51,-50 -32,-121 33,-121 50,0 86,81 55,122 -25,32 -56,32 -88,-1 z m 66,-24 c 3,-8 0,-26 -6,-41 -7,-20 -16,-27 -32,-24 -29,4 -35,34 -12,59 20,22 42,25 50,6 z"
           stroke="none"
           fill="#000000"
           fill-rule="nonzero"
           id="path2610" />
        <path
           d="m 4223,3230 c -34,-14 -46,-45 -33,-85 14,-43 48,-55 85,-31 34,22 36,87 3,110 -25,18 -25,18 -55,6 z m 44,-46 c 7,-18 -6,-45 -25,-52 -18,-6 -36,37 -21,54 15,19 38,18 46,-2 z"
           stroke="none"
           fill="#000000"
           fill-rule="nonzero"
           id="path2612" />
        <path
           d="m 5106,5235 c -54,-54 -3,-110 67,-74 28,15 37,28 37,55 0,35 -74,49 -104,19 z m 74,-26 c 0,-9 -33,-29 -49,-29 -17,0 -13,28 6,38 18,11 43,5 43,-9 z"
           stroke="none"
           fill="#000000"
           fill-rule="nonzero"
           id="path2614" />
        <path
           d="m 5094,4672 c -32,-27 -43,-54 -33,-80 12,-31 35,-38 74,-19 25,12 34,23 38,49 9,63 -32,89 -79,50 z m 46,-37 c 0,-21 -24,-45 -44,-45 -12,0 -5,34 11,52 22,25 33,23 33,-7 z"
           stroke="none"
           fill="#000000"
           fill-rule="nonzero"
           id="path2616" />
        <path
           d="m 5005,3946 c -35,-35 -35,-89 1,-112 24,-16 27,-16 52,3 38,28 50,67 31,101 -20,36 -52,39 -84,8 z m 59,-25 c 4,-5 2,-21 -4,-36 -11,-30 -43,-31 -48,-2 -6,32 37,63 52,38 z"
           stroke="none"
           fill="#000000"
           fill-rule="nonzero"
           id="path2618" />
        <path
           d="m 4995,3155 c -31,-30 -32,-57 -2,-89 49,-55 117,-22 117,57 0,55 -72,76 -115,32 z m 74,-19 c 19,-22 -4,-68 -32,-64 -29,4 -36,47 -11,65 22,16 29,16 43,-1 z"
           stroke="none"
           fill="#000000"
           fill-rule="nonzero"
           id="path2620" />
        <path
           d="m 3381,7710 c -139,-29 -264,-93 -404,-205 -221,-178 -380,-414 -443,-660 -22,-87 -25,-115 -21,-215 6,-159 27,-212 121,-305 84,-84 134,-104 271,-112 479,-28 1039,585 1012,1107 -4,84 -9,103 -42,167 -42,82 -123,167 -175,184 -19,6 -43,19 -53,28 -22,18 -194,26 -266,11 z m 216,-93 c 28,-8 63,-21 78,-31 23,-15 24,-20 13,-33 -12,-14 -11,-15 8,-5 17,9 24,9 34,-3 6,-8 8,-20 4,-26 -4,-7 -3,-9 4,-5 6,3 19,-5 31,-19 64,-82 76,-281 26,-435 -65,-202 -178,-366 -350,-510 -41,-34 -72,-66 -70,-71 3,-4 0,-11 -6,-15 -8,-4 -9,-3 -5,4 12,20 -3,13 -65,-29 -81,-55 -210,-115 -289,-135 -163,-41 -322,30 -388,175 -33,71 -41,212 -19,316 46,215 201,464 382,616 114,95 311,193 425,212 54,9 138,6 187,-6 z"
           stroke="none"
           fill="#000000"
           fill-rule="nonzero"
           id="path2622" />
        <path
           d="m 3239,7370 c -100,-12 -229,-86 -308,-176 -59,-67 -96,-190 -87,-287 8,-86 40,-150 100,-200 96,-79 176,-93 346,-61 169,33 266,94 316,199 21,44 24,64 24,178 0,87 -4,138 -14,161 -18,43 -75,106 -138,152 -42,31 -58,37 -111,39 -34,2 -92,0 -128,-5 z"
           stroke="none"
           fill="#000000"
           fill-rule="nonzero"
           id="path2624" />
        <path
           d="m 6200,7356 c -166,-35 -360,-151 -486,-289 -234,-258 -352,-623 -285,-886 37,-148 121,-255 248,-318 68,-34 83,-37 181,-41 89,-4 122,-1 185,17 270,74 515,295 657,594 68,142 94,251 94,402 0,88 -5,136 -18,180 -49,163 -151,277 -294,326 -74,26 -199,32 -282,15 z m 279,-114 c 265,-130 297,-525 72,-883 -105,-167 -222,-278 -402,-379 -67,-38 -99,-50 -127,-49 -20,1 -63,-4 -95,-10 -144,-30 -307,51 -376,188 -70,136 -68,345 4,537 98,261 306,484 532,572 112,44 143,50 248,50 77,0 98,-4 144,-26 z"
           stroke="none"
           fill="#000000"
           fill-rule="nonzero"
           id="path2626" />
        <path
           d="m 6028,7045 c -53,-14 -153,-73 -184,-107 -72,-81 -133,-291 -121,-420 4,-47 14,-72 48,-124 25,-40 56,-73 78,-85 20,-11 52,-30 71,-42 32,-20 47,-22 175,-21 166,0 171,2 277,106 120,119 165,235 146,381 -10,76 -57,166 -105,203 -21,16 -47,38 -58,50 -12,12 -43,34 -69,48 -42,22 -61,26 -130,25 -45,0 -102,-7 -128,-14 z"
           stroke="none"
           fill="#000000"
           fill-rule="nonzero"
           id="path2628" />
        <path
           d="m 2474,2406 c -10,-27 1,-59 28,-79 23,-17 33,-19 55,-11 23,8 28,16 26,38 -1,16 -10,37 -19,47 -21,23 -82,26 -90,5 z m 41,-26 c 3,-5 1,-10 -4,-10 -6,0 -11,5 -11,10 0,6 2,10 4,10 3,0 8,-4 11,-10 z"
           stroke="none"
           fill="#000000"
           fill-rule="nonzero"
           id="path2630" />
        <path
           d="m 2845,2240 c -27,-30 -10,-70 37,-88 46,-18 68,-5 68,39 0,49 -74,83 -105,49 z m 64,-29 c 8,-5 11,-16 7,-26 -6,-15 -9,-16 -28,-3 -12,8 -24,20 -26,26 -4,14 27,16 47,3 z"
           stroke="none"
           fill="#000000"
           fill-rule="nonzero"
           id="path2632" />
        <path
           d="m 3216,2114 c -8,-21 -7,-67 2,-80 4,-6 17,-16 30,-23 55,-29 98,53 52,99 -24,24 -75,27 -84,4 z m 59,-34 c 14,-15 16,-23 7,-32 -17,-17 -42,-1 -42,27 0,30 11,32 35,5 z"
           stroke="none"
           fill="#000000"
           fill-rule="nonzero"
           id="path2634" />
        <path
           d="m 3576,1995 c -25,-25 -16,-56 23,-82 63,-43 124,-19 102,39 -12,33 -33,48 -73,55 -25,3 -39,0 -52,-12 z m 68,-25 c 26,-9 38,-50 16,-50 -17,0 -70,30 -70,39 0,22 17,25 54,11 z"
           stroke="none"
           fill="#000000"
           fill-rule="nonzero"
           id="path2636" />
        <path
           d="m 3972,1888 c -35,-35 4,-88 64,-88 36,0 47,18 38,56 -10,40 -74,60 -102,32 z m 76,-41 c 3,-15 -2,-18 -25,-15 -17,2 -29,10 -31,21 -3,15 2,18 25,15 17,-2 29,-10 31,-21 z"
           stroke="none"
           fill="#000000"
           fill-rule="nonzero"
           id="path2638" />
        <path
           d="m 4340,1821 c -19,-36 -12,-78 16,-100 54,-42 107,-19 102,44 -2,31 -9,42 -33,56 -40,23 -72,23 -85,0 z m 73,-27 c 21,-8 23,-50 1,-58 -8,-3 -24,-1 -35,4 -29,16 -24,79 5,65 6,-3 19,-8 29,-11 z"
           stroke="none"
           fill="#000000"
           fill-rule="nonzero"
           id="path2640" />
        <path
           d="m 8216,1938 c -20,-29 -20,-41 2,-61 45,-41 122,-24 122,27 0,54 -93,79 -124,34 z m 84,-28 c 0,-5 -13,-10 -30,-10 -16,0 -30,5 -30,10 0,6 14,10 30,10 17,0 30,-4 30,-10 z"
           stroke="none"
           fill="#000000"
           fill-rule="nonzero"
           id="path2642" />
        <path
           d="m 7807,1892 c -36,-40 -3,-92 58,-92 73,0 86,89 15,104 -48,9 -55,8 -73,-12 z m 67,-28 c 9,-3 16,-10 16,-16 0,-14 -53,-5 -58,10 -4,13 16,16 42,6 z"
           stroke="none"
           fill="#000000"
           fill-rule="nonzero"
           id="path2644" />
        <path
           d="m 7451,1861 c -27,-27 -26,-36 4,-66 28,-29 61,-32 93,-9 42,29 18,77 -45,90 -24,5 -36,1 -52,-15 z m 77,-39 c 3,-10 -4,-13 -24,-10 -15,2 -29,9 -32,16 -3,10 4,13 24,10 15,-2 29,-9 32,-16 z"
           stroke="none"
           fill="#000000"
           fill-rule="nonzero"
           id="path2646" />
        <path
           d="m 7072,1854 c -51,-36 -8,-114 64,-114 31,0 64,21 64,41 0,15 -31,73 -44,81 -19,13 -60,9 -84,-8 z m 78,-49 c 0,-15 -6,-25 -14,-25 -28,0 -46,12 -46,31 0,14 7,19 30,19 25,0 30,-4 30,-25 z"
           stroke="none"
           fill="#000000"
           fill-rule="nonzero"
           id="path2648" />
        <path
           d="m 6663,1824 c -7,-3 -13,-19 -13,-35 0,-21 7,-32 30,-44 37,-19 74,-19 94,1 20,20 20,24 -4,52 -19,24 -80,38 -107,26 z m 87,-44 c 0,-5 -11,-10 -24,-10 -14,0 -28,5 -31,10 -4,6 7,10 24,10 17,0 31,-4 31,-10 z"
           stroke="none"
           fill="#000000"
           fill-rule="nonzero"
           id="path2650" />
        <path
           d="m 6258,1809 c -54,-20 -44,-79 18,-105 39,-16 75,-10 99,16 18,19 13,60 -7,60 -6,0 -16,7 -22,14 -15,20 -56,27 -88,15 z m 89,-43 c 3,-3 3,-12 0,-21 -12,-29 -87,-11 -87,22 0,13 8,15 41,10 22,-3 43,-8 46,-11 z"
           stroke="none"
           fill="#000000"
           fill-rule="nonzero"
           id="path2652" />
        <path
           d="m 5390,1791 c -14,-28 -12,-46 8,-64 29,-27 68,-31 101,-11 35,21 43,61 14,70 -10,3 -26,10 -35,15 -31,16 -76,11 -88,-10 z m 98,-25 c 9,-10 -11,-26 -32,-26 -26,0 -50,22 -38,34 7,7 61,1 70,-8 z"
           stroke="none"
           fill="#000000"
           fill-rule="nonzero"
           id="path2654" />
        <path
           d="m 5787,1792 c -51,-56 42,-131 108,-88 34,22 31,48 -7,80 -37,30 -78,34 -101,8 z m 71,-28 c 30,-21 28,-34 -7,-34 -35,0 -56,21 -39,38 15,15 19,15 46,-4 z"
           stroke="none"
           fill="#000000"
           fill-rule="nonzero"
           id="path2656" />
        <path
           d="m 5056,1784 c -18,-18 -21,-56 -6,-85 8,-14 21,-19 53,-19 50,0 67,13 67,51 0,53 -79,89 -114,53 z m 58,-24 c 14,-5 26,-16 26,-25 0,-16 -42,-31 -59,-20 -12,7 -15,38 -4,48 8,9 7,9 37,-3 z"
           stroke="none"
           fill="#000000"
           fill-rule="nonzero"
           id="path2658" />
        <path
           d="m 2093,3905 c 0,-22 2,-30 4,-17 2,12 2,30 0,40 -3,9 -5,-1 -4,-23 z"
           stroke="none"
           fill="#000000"
           fill-rule="nonzero"
           id="path2660" />
        <path
           d="m 2083,3815 c 0,-27 2,-38 4,-22 2,15 2,37 0,50 -2,12 -4,0 -4,-28 z"
           stroke="none"
           fill="#000000"
           fill-rule="nonzero"
           id="path2662" />
        <path
           d="m 2073,3670 c 0,-47 2,-66 4,-42 2,23 2,61 0,85 -2,23 -4,4 -4,-43 z"
           stroke="none"
           fill="#000000"
           fill-rule="nonzero"
           id="path2664" />
        <path
           d="m 2062,3450 c 0,-14 2,-19 5,-12 2,6 2,18 0,25 -3,6 -5,1 -5,-13 z"
           stroke="none"
           fill="#000000"
           fill-rule="nonzero"
           id="path2666" />
      </g>
    </g>
  </g>
</svg>
