<?xml version="1.0" standalone="no"?>
<!DOCTYPE svg PUBLIC "-//W3C//DTD SVG 1.0//EN" "http://www.w3.org/TR/2001/REC-SVG-20010904/DTD/svg10.dtd">
<svg xmlns="http://www.w3.org/2000/svg" xmlns:xlink="http://www.w3.org/1999/xlink" id="body_1" width="576" height="576">

<g transform="matrix(0.5333334 0 0 0.5333334 0 0)">
	<g transform="matrix(0.1 0 -0 -0.1 0 1080)">
        <path d="M5731 10273C 5707 10264 5686 10250 5683 10241C 5681 10232 5660 10212 5636 10197C 5451 10080 5409 9891 5528 9712C 5559 9665 5608 9619 5659 9591C 5670 9584 5670 9579 5659 9562C 5648 9544 5649 9533 5664 9491C 5680 9446 5681 9421 5674 9263C 5670 9165 5666 8930 5666 8740L5666 8740L5665 8395L5600 8388C 5252 8352 5188 8344 5127 8327C 5098 8319 5021 8304 4955 8295C 4853 8280 4815 8268 4697 8218C 4621 8186 4527 8148 4487 8133C 4390 8098 4303 8054 4292 8033C 4283 8018 4273 8024 4216 8077C 4018 8263 3730 8338 3424 8285C 3054 8220 2674 7952 2416 7571C 2229 7296 2120 6956 2120 6645C 2120 6315 2271 5989 2494 5835C 2525 5814 2550 5793 2550 5788C 2550 5783 2536 5762 2520 5741C 2499 5716 2487 5685 2480 5647C 2475 5616 2466 5581 2459 5568C 2448 5548 2438 5502 2410 5341C 2405 5312 2394 5277 2386 5265C 2369 5239 2340 5134 2340 5097C 2340 5084 2315 5007 2285 4926C 2250 4832 2230 4765 2230 4737C 2230 4713 2223 4671 2216 4644C 2208 4617 2192 4530 2181 4450C 2170 4370 2149 4250 2135 4182C 2121 4115 2108 4034 2105 4002L2105 4002L2101 3945L2110 4000C 2123 4070 2132 4089 2125 4031C 2122 4007 2117 3908 2114 3811C 2108 3627 2087 3427 2073 3423C 2069 3421 2066 3335 2068 3230C 2070 3089 2067 3040 2059 3040C 2051 3040 2053 3033 2063 3022C 2075 3009 2083 2970 2090 2884C 2095 2819 2107 2716 2115 2655C 2123 2595 2130 2526 2130 2502C 2130 2466 2136 2453 2162 2427C 2180 2409 2196 2384 2198 2370C 2206 2310 2276 2244 2376 2201C 2480 2156 2590 2098 2638 2063C 2662 2046 2704 2027 2732 2021C 2760 2015 2799 1997 2819 1981C 2871 1940 2889 1933 2952 1925C 2996 1919 3020 1909 3054 1883C 3085 1859 3129 1840 3200 1819C 3256 1803 3323 1778 3350 1765C 3404 1738 3507 1710 3557 1710C 3584 1710 3689 1679 3925 1602C 4219 1505 4248 1500 4615 1485C 4797 1478 4968 1467 4995 1461C 5035 1453 5315 1446 5890 1438C 6133 1435 6891 1467 7133 1490C 7187 1496 7271 1500 7320 1500C 7405 1500 7566 1513 7875 1545C 7952 1553 8040 1560 8070 1560C 8137 1560 8236 1578 8400 1620C 8469 1637 8558 1655 8598 1660C 8678 1669 8703 1684 8719 1734C 8731 1769 8762 1928 8778 2035C 8784 2074 8795 2139 8801 2180C 8822 2306 8829 4051 8809 4124C 8803 4147 8792 4201 8785 4245C 8778 4289 8763 4375 8752 4435C 8740 4496 8726 4581 8720 4625C 8714 4669 8703 4737 8695 4775C 8688 4814 8676 4890 8669 4945C 8662 4999 8646 5092 8632 5150C 8618 5208 8606 5289 8605 5330C 8604 5371 8598 5443 8591 5490C 8585 5537 8575 5611 8569 5655C 8560 5727 8506 5885 8383 6205C 8375 6227 8354 6283 8338 6330C 8296 6449 8119 6804 8069 6870C 8047 6900 8017 6947 8003 6975C 7989 7002 7963 7041 7946 7061C 7929 7081 7903 7113 7887 7131C 7814 7220 7444 7611 7428 7615C 7419 7619 7376 7650 7333 7686C 7290 7722 7217 7776 7170 7808C 7123 7839 7054 7890 7017 7922C 6979 7953 6930 7985 6907 7993C 6884 8001 6843 8021 6816 8039C 6788 8056 6760 8070 6753 8070C 6735 8070 6677 8100 6683 8106C 6685 8108 6709 8101 6735 8090C 6761 8079 6785 8071 6787 8073C 6795 8082 6690 8119 6674 8113C 6662 8109 6659 8110 6664 8118C 6668 8125 6666 8128 6658 8125C 6642 8119 6565 8162 6569 8174C 6573 8188 6369 8286 6309 8299C 6268 8308 6199 8339 6189 8353C 6188 8354 6184 8623 6181 8950C 6175 9418 6171 9551 6160 9572C 6147 9599 6149 9601 6192 9642C 6249 9697 6285 9758 6306 9840C 6348 10005 6285 10152 6139 10225C 6021 10285 5829 10308 5731 10273zM6040 10148C 6148 10098 6204 10016 6203 9910C 6203 9799 6140 9707 6031 9656C 5994 9639 5965 9635 5890 9635C 5808 9635 5787 9639 5739 9661C 5583 9734 5511 9883 5571 10007C 5596 10058 5663 10119 5733 10155C 5781 10180 5793 10181 5885 10178C 5966 10174 5996 10169 6040 10148zM5795 9545C 5872 9526 5941 9526 6013 9545C 6045 9553 6073 9560 6075 9560C 6093 9560 6101 9388 6105 8890C 6108 8579 6111 8313 6111 8299C 6114 8251 6101 8224 6058 8194C 5974 8135 5798 8098 5743 8128C 5730 8135 5713 8155 5704 8172C 5690 8199 5689 8213 5699 8269C 5709 8329 5726 8677 5727 8825C 5727 8858 5727 8980 5728 9095C 5729 9211 5726 9334 5720 9370C 5709 9445 5707 9544 5717 9553C 5725 9562 5724 9562 5795 9545zM5602 8245C 5596 8190 5636 8102 5681 8070C 5697 8058 5710 8044 5710 8038C 5710 8032 5681 7968 5646 7896C 5577 7756 5519 7620 5466 7475C 5440 7403 5417 7363 5349 7274C 5303 7213 5245 7127 5221 7084C 5196 7040 5169 6996 5159 6985C 5126 6948 5066 6757 5034 6593L5034 6593L5017 6500L4999 6541C 4983 6575 4976 6581 4954 6578C 4890 6571 4839 6448 4885 6414C 4914 6393 4936 6397 4976 6432L4976 6432L5013 6465L5007 6410C 5004 6380 5006 6297 5012 6225C 5022 6098 5022 6093 4995 6005C 4981 5956 4965 5897 4960 5875C 4955 5853 4936 5774 4916 5700C 4897 5626 4876 5525 4870 5475C 4850 5306 4829 5175 4815 5125C 4794 5048 4781 4968 4765 4805C 4757 4723 4746 4624 4741 4585C 4736 4547 4727 4468 4721 4410C 4714 4352 4700 4244 4689 4170C 4678 4096 4665 3986 4659 3925C 4644 3764 4649 3331 4668 3057C 4678 2926 4682 2816 4678 2814C 4671 2809 4498 2830 4345 2854C 4296 2862 4208 2873 4150 2880C 3878 2911 3486 2976 3225 3035C 3083 3066 2977 3087 2865 3104C 2640 3139 2341 3212 2237 3257L2237 3257L2180 3283L2180 3359C 2180 3401 2185 3473 2190 3520C 2196 3567 2204 3706 2209 3830C 2215 3954 2228 4116 2238 4190C 2249 4264 2263 4372 2270 4430C 2276 4488 2290 4574 2301 4622C 2311 4670 2320 4724 2320 4741C 2320 4758 2343 4832 2371 4906C 2399 4980 2426 5070 2431 5106C 2436 5142 2449 5189 2460 5210C 2478 5246 2497 5321 2521 5454C 2525 5482 2536 5524 2544 5549C 2552 5575 2564 5614 2570 5638C 2576 5662 2590 5690 2601 5701C 2611 5711 2620 5727 2620 5735C 2620 5755 2626 5754 2699 5725C 2733 5711 2813 5691 2878 5680C 2942 5669 3038 5651 3090 5640C 3142 5630 3208 5618 3235 5614C 3263 5610 3293 5603 3303 5598C 3314 5593 3370 5582 3428 5574C 3536 5560 3576 5552 3775 5506C 3895 5478 4024 5472 4080 5492C 4235 5545 4470 5849 4674 6258C 4700 6309 4731 6379 4744 6413C 4757 6447 4786 6523 4808 6582C 4830 6641 4860 6731 4874 6782C 4903 6891 4940 7127 4941 7214C 4941 7248 4947 7293 4954 7315C 4970 7369 4954 7449 4906 7545C 4860 7638 4827 7667 4619 7799C 4388 7946 4357 7969 4370 7985C 4381 7999 4520 8060 4538 8060C 4544 8060 4612 8087 4690 8120C 4826 8178 4887 8194 5045 8214C 5073 8218 5124 8227 5160 8235C 5196 8243 5263 8254 5310 8259C 5357 8265 5427 8273 5465 8278C 5504 8283 5551 8288 5571 8288L5571 8288L5608 8290L5602 8245zM6281 8224C 6347 8207 6459 8151 6500 8115C 6514 8102 6545 8082 6570 8070C 6595 8057 6627 8039 6642 8028C 6657 8018 6693 8001 6722 7991C 6769 7974 6829 7948 6884 7918C 6895 7912 6944 7875 6994 7836C 7044 7796 7141 7724 7209 7675C 7280 7624 7377 7542 7436 7482C 7493 7425 7540 7381 7540 7384C 7540 7387 7559 7369 7581 7345C 7604 7320 7629 7300 7638 7300C 7660 7300 7700 7252 7700 7226C 7700 7213 7715 7184 7733 7160C 7750 7137 7783 7089 7805 7055C 7827 7021 7862 6973 7883 6948C 7903 6923 7920 6899 7920 6894C 7920 6881 8049 6650 8086 6598C 8144 6516 8198 6399 8265 6215C 8285 6160 8320 6068 8342 6010C 8440 5751 8459 5688 8469 5575C 8480 5464 8499 5348 8526 5230C 8548 5130 8580 4930 8580 4885C 8580 4863 8585 4825 8591 4800C 8608 4724 8628 4600 8640 4485C 8647 4425 8660 4349 8671 4317C 8681 4286 8690 4238 8690 4212C 8690 4185 8697 4142 8706 4116C 8721 4073 8722 4009 8718 3522C 8714 3007 8712 2976 8695 2964C 8673 2948 8517 2898 8415 2874C 8291 2845 8226 2828 8175 2810C 8148 2800 8091 2789 8050 2786C 7963 2779 7838 2763 7760 2750C 7706 2741 7459 2717 7290 2705C 7243 2702 7162 2691 7110 2682C 7032 2669 6951 2666 6665 2667C 6180 2669 5859 2677 5767 2689C 5723 2695 5606 2706 5507 2715C 5139 2745 5113 2748 4828 2791C 4782 2798 4760 2807 4755 2818C 4738 2862 4718 3246 4717 3555C 4715 3891 4719 3951 4755 4190C 4763 4242 4775 4337 4781 4400C 4788 4463 4797 4542 4801 4575C 4805 4608 4816 4707 4824 4795C 4840 4955 4853 5038 4871 5096C 4881 5128 4906 5260 4920 5350C 4924 5380 4935 5455 4944 5515C 4959 5615 5015 5857 5041 5938L5041 5938L5052 5972L5090 5878C 5221 5554 5458 5358 5790 5300C 5826 5294 5887 5278 5925 5265C 5964 5252 6038 5232 6090 5221C 6142 5209 6251 5183 6332 5164C 6446 5136 6508 5127 6607 5123L6607 5123L6735 5118L6855 5185C 6984 5256 7083 5343 7157 5448C 7178 5478 7207 5517 7222 5534C 7258 5577 7417 5815 7441 5862C 7451 5883 7460 5907 7460 5915C 7460 5924 7473 5973 7489 6023C 7633 6469 7635 6478 7635 6770C 7635 6899 7631 7034 7627 7070C 7622 7106 7617 7142 7616 7151C 7615 7160 7607 7178 7599 7191C 7590 7204 7573 7236 7561 7262C 7547 7292 7519 7324 7487 7350C 7458 7372 7431 7393 7425 7398C 7413 7407 7203 7528 7114 7577C 7080 7595 7047 7617 7040 7625C 7034 7632 7012 7644 6992 7651C 6972 7658 6932 7678 6903 7696C 6778 7776 6653 7820 6501 7840C 6336 7861 6133 7830 5946 7754C 5927 7747 5927 7747 5943 7770C 5964 7800 5964 7805 5944 7824C 5918 7851 5865 7844 5825 7809C 5806 7792 5790 7770 5790 7759C 5790 7736 5825 7717 5856 7723C 5869 7725 5880 7726 5880 7725C 5880 7724 5840 7700 5792 7671C 5744 7643 5668 7591 5625 7556C 5581 7521 5544 7493 5542 7495C 5537 7500 5651 7769 5699 7863C 5769 7999 5784 8015 5856 8030C 6013 8061 6109 8106 6165 8172C 6179 8188 6190 8210 6190 8221C 6190 8244 6201 8245 6281 8224zM3756 8189C 3872 8169 3976 8128 4065 8067C 4112 8036 4210 7938 4204 7928C 4201 7924 4205 7920 4214 7920C 4235 7920 4306 7807 4341 7717C 4400 7563 4405 7532 4405 7315C 4405 7139 4402 7104 4381 7020C 4281 6619 4046 6260 3725 6020C 3614 5937 3409 5836 3285 5804C 3151 5769 2968 5761 2850 5784C 2762 5802 2668 5834 2647 5853C 2641 5860 2619 5872 2600 5881C 2548 5906 2459 5983 2407 6049C 2238 6264 2174 6567 2229 6892C 2292 7257 2514 7638 2809 7884C 2976 8023 3237 8150 3430 8185C 3522 8201 3676 8204 3756 8189zM4478 7788C 4503 7770 4536 7742 4551 7727C 4567 7711 4585 7697 4592 7696C 4614 7692 4763 7596 4830 7543C 4857 7521 4858 7517 4865 7389C 4871 7277 4869 7240 4851 7141C 4834 7046 4817 6950 4788 6780C 4786 6772 4780 6759 4773 6752C 4766 6745 4747 6693 4730 6637C 4676 6458 4621 6329 4555 6225C 4538 6198 4510 6147 4493 6114C 4465 6057 4419 5985 4304 5820C 4256 5751 4180 5669 4090 5591L4090 5591L4035 5543L3947 5560C 3898 5570 3853 5583 3847 5589C 3841 5595 3812 5600 3783 5600C 3754 5600 3707 5609 3678 5619C 3649 5630 3603 5642 3575 5645C 3548 5649 3503 5658 3476 5666C 3449 5674 3401 5680 3371 5680C 3297 5680 3273 5695 3330 5705C 3448 5725 3632 5811 3790 5921C 3890 5991 4064 6156 4142 6255C 4269 6416 4389 6633 4440 6795C 4512 7025 4523 7086 4524 7310C 4525 7517 4512 7599 4458 7725C 4442 7764 4426 7801 4423 7808C 4415 7828 4430 7822 4478 7788zM5918 7793C 5914 7770 5843 7743 5828 7758C 5819 7767 5824 7771 5848 7776C 5866 7780 5880 7789 5880 7796C 5880 7804 5889 7810 5901 7810C 5915 7810 5920 7805 5918 7793zM6612 7729C 6873 7663 7075 7472 7159 7213C 7236 6974 7225 6650 7130 6359C 7038 6077 6827 5773 6611 5609C 6525 5544 6328 5447 6215 5414C 6095 5379 5884 5369 5766 5394C 5602 5428 5492 5488 5364 5615C 5231 5746 5157 5887 5112 6090C 5089 6195 5089 6454 5113 6573C 5211 7062 5562 7504 5982 7668C 6123 7722 6152 7731 6245 7746C 6349 7763 6508 7756 6612 7729zM7250 7395C 7286 7372 7340 7340 7370 7325C 7455 7282 7477 7262 7506 7197C 7538 7124 7549 7037 7551 6835C 7553 6698 7548 6652 7521 6520C 7512 6477 7459 6324 7426 6248C 7417 6227 7410 6198 7410 6183C 7409 6168 7400 6130 7389 6100C 7378 6070 7358 6011 7346 5970C 7321 5889 7227 5714 7139 5585C 7078 5496 6907 5307 6827 5242C 6749 5179 6714 5165 6665 5179C 6643 5185 6598 5195 6565 5200C 6532 5206 6483 5216 6455 5224L6455 5224L6405 5238L6455 5240L6505 5243L6455 5251C 6428 5255 6340 5267 6260 5277C 6128 5293 6119 5295 6160 5303C 6314 5331 6532 5428 6670 5531C 6909 5708 7132 5990 7231 6242C 7266 6331 7318 6541 7331 6643C 7346 6773 7338 6970 7312 7085C 7289 7181 7214 7372 7178 7423C 7154 7456 7154 7456 7250 7395zM7234 6825C 7235 6674 7231 6618 7216 6550C 7174 6358 7094 6165 6991 6008C 6930 5913 6915 5905 6970 5995C 7068 6155 7145 6343 7188 6525C 7211 6622 7214 6657 7214 6825C 7215 6930 7212 7040 7208 7070L7208 7070L7202 7125L7217 7070C 7229 7030 7233 6964 7234 6825zM8116 6777C 8153 6705 8141 6711 8097 6787C 8077 6823 8067 6847 8076 6840C 8084 6832 8103 6804 8116 6777zM4960 6501C 4960 6480 4937 6457 4927 6467C 4916 6477 4919 6505 4932 6518C 4946 6532 4960 6524 4960 6501zM4926 6432C 4916 6430 4904 6432 4898 6438C 4892 6444 4898 6445 4917 6442C 4938 6437 4940 6435 4926 6432zM2232 3160C 2316 3108 2454 3068 2808 2994C 2898 2976 2975 2958 2979 2956C 2983 2953 3047 2944 3121 2935C 3195 2926 3305 2910 3365 2900C 3426 2890 3543 2874 3625 2866C 3850 2842 4022 2820 4145 2799C 4206 2789 4314 2774 4385 2765C 4457 2757 4554 2743 4602 2734L4602 2734L4689 2718L4694 2666C 4697 2638 4702 2589 4705 2557L4705 2557L4710 2498L4683 2504C 4667 2507 4606 2514 4545 2520C 4432 2531 4240 2556 4160 2570C 4135 2574 4047 2587 3964 2598C 3881 2610 3775 2629 3729 2640C 3613 2670 3583 2677 3440 2700C 3371 2711 3270 2731 3215 2744C 3029 2789 2973 2800 2884 2806C 2835 2809 2757 2822 2710 2835C 2663 2848 2585 2866 2536 2875C 2487 2884 2408 2907 2361 2926C 2314 2945 2256 2963 2233 2967C 2208 2970 2188 2979 2184 2989C 2174 3013 2166 3190 2175 3190C 2179 3190 2205 3176 2232 3160zM2585 3080C 2646 3065 2807 3033 2885 3020C 3010 2999 3154 2971 3185 2961C 3232 2945 3077 2959 3005 2976C 2972 2984 2902 3000 2850 3010C 2700 3040 2527 3080 2522 3085C 2514 3093 2541 3090 2585 3080zM3257 2944C 3254 2941 3245 2940 3238 2943C 3230 2946 3233 2949 3244 2949C 3255 2950 3261 2947 3257 2944zM2333 2860C 2373 2845 2466 2818 2540 2802C 2614 2785 2688 2766 2705 2760C 2721 2754 2770 2744 2815 2739C 2894 2729 3099 2683 3275 2635C 3325 2622 3413 2604 3471 2595C 3529 2586 3615 2570 3661 2559C 3821 2521 3933 2500 4064 2485C 4136 2476 4265 2456 4350 2440C 4435 2424 4548 2408 4600 2404C 4652 2400 4704 2394 4716 2389C 4743 2380 4755 2320 4775 2105C 4784 2017 4797 1887 4806 1815C 4814 1744 4824 1661 4827 1633L4827 1633L4832 1580L4729 1581C 4422 1582 4245 1602 4095 1650C 4062 1661 4017 1674 3995 1679C 3973 1685 3888 1712 3805 1740C 3718 1769 3613 1797 3556 1805C 3489 1816 3431 1832 3381 1855C 3339 1873 3272 1898 3231 1909C 3190 1921 3135 1945 3106 1965C 3051 2003 3003 2020 2953 2020C 2930 2020 2908 2031 2875 2060C 2850 2082 2827 2100 2826 2100C 2791 2100 2711 2126 2689 2144C 2659 2170 2485 2260 2407 2291C 2343 2316 2290 2357 2290 2381C 2290 2392 2282 2408 2273 2418C 2249 2442 2233 2493 2225 2570C 2221 2606 2212 2686 2204 2748C 2184 2910 2183 2904 2226 2896C 2245 2892 2294 2876 2333 2860zM8710 2800L8710 2750L8668 2750C 8644 2750 8599 2738 8561 2721C 8493 2692 8310 2639 8205 2620C 8172 2613 8123 2602 8095 2595C 8068 2587 7996 2576 7935 2570C 7875 2564 7797 2552 7762 2544C 7727 2536 7679 2530 7654 2530C 7629 2530 7559 2519 7497 2505C 7435 2491 7341 2474 7287 2466C 7233 2458 7182 2446 7174 2440C 7165 2432 7114 2428 7023 2428C 6947 2428 6844 2422 6794 2414C 6629 2388 5921 2395 5754 2425C 5738 2428 5558 2437 5354 2445C 4984 2460 4822 2472 4801 2484C 4795 2488 4790 2517 4789 2548C 4789 2579 4785 2630 4781 2660C 4776 2690 4773 2716 4774 2716C 4774 2717 4820 2711 4875 2704C 4930 2696 5020 2686 5075 2681C 5130 2675 5211 2666 5255 2661C 5299 2655 5403 2645 5485 2639C 5568 2633 5685 2622 5745 2613C 5814 2604 5959 2597 6135 2595C 6289 2594 6552 2589 6720 2585C 6982 2578 7033 2580 7080 2593C 7110 2602 7158 2611 7185 2615C 7278 2626 7495 2643 7565 2645C 7604 2646 7678 2653 7730 2662C 7826 2678 7956 2694 8085 2706C 8124 2709 8175 2720 8200 2730C 8267 2756 8353 2780 8382 2780C 8395 2780 8451 2793 8506 2809C 8611 2840 8638 2846 8683 2849C 8709 2850 8710 2848 8710 2800zM8725 2568C 8738 2343 8736 2299 8699 2060C 8665 1846 8649 1786 8625 1783C 8602 1780 8456 1745 8285 1701C 8167 1671 7812 1636 7505 1625C 7423 1622 7315 1615 7265 1610C 6896 1571 6543 1550 6242 1550C 6147 1550 6027 1545 5975 1539C 5904 1532 5865 1532 5818 1541C 5775 1550 5632 1554 5370 1554C 5140 1555 4979 1559 4970 1565C 4962 1570 4945 1573 4933 1572C 4908 1568 4908 1570 4885 1755C 4876 1827 4863 1928 4855 1980C 4848 2032 4845 2079 4849 2083C 4854 2087 4853 2114 4848 2143C 4843 2172 4835 2220 4831 2250C 4826 2280 4819 2321 4815 2341L4815 2341L4808 2377L4862 2368C 4891 2363 5037 2355 5185 2350C 5334 2344 5478 2335 5505 2330C 5583 2314 6373 2306 6650 2319C 6955 2332 7260 2369 7510 2424C 7631 2450 7875 2491 8020 2510C 8132 2525 8428 2594 8560 2636C 8618 2654 8677 2669 8692 2669L8692 2669L8719 2670L8725 2568zM3385 2636C 3424 2628 3477 2619 3503 2615C 3530 2612 3550 2606 3547 2603C 3540 2597 3340 2627 3309 2639C 3274 2653 3305 2652 3385 2636zM3593 2593C 3586 2591 3574 2591 3568 2593C 3561 2596 3566 2598 3580 2598C 3594 2598 3599 2596 3593 2593zM3637 2584C 3634 2581 3625 2580 3618 2583C 3610 2586 3613 2589 3624 2589C 3635 2590 3641 2587 3637 2584zM3757 2554C 3754 2551 3745 2550 3738 2553C 3730 2556 3733 2559 3744 2559C 3755 2560 3761 2557 3757 2554zM3803 2543C 3796 2541 3784 2541 3778 2543C 3771 2546 3776 2548 3790 2548C 3804 2548 3809 2546 3803 2543zM3965 2524C 4004 2520 4062 2511 4095 2504L4095 2504L4155 2490L4080 2495C 3997 2501 3830 2529 3830 2537C 3830 2540 3845 2540 3863 2537C 3880 2534 3927 2528 3965 2524zM4197 2484C 4194 2481 4185 2480 4178 2483C 4170 2486 4173 2489 4184 2489C 4195 2490 4201 2487 4197 2484zM4462 2450C 4595 2436 4714 2419 4720 2413C 4731 2401 4499 2422 4400 2442C 4295 2462 4247 2479 4327 2466C 4350 2463 4410 2456 4462 2450zM5095 2381C 5183 2376 5374 2366 5520 2360C 5825 2347 5927 2333 5725 2331C 5654 2331 5546 2337 5485 2345C 5425 2353 5310 2360 5230 2360C 5067 2360 4870 2375 4825 2390C 4792 2401 4808 2400 5095 2381zM6888 2343C 6872 2341 6848 2341 6833 2343C 6817 2345 6830 2347 6860 2347C 6890 2347 6903 2345 6888 2343z" stroke="none" fill="#000000" fill-rule="nonzero" />
        <path d="M5363 7889C 5334 7878 5299 7822 5302 7791C 5308 7739 5370 7738 5421 7790C 5458 7827 5457 7842 5417 7872C 5393 7891 5379 7895 5363 7889zM5400 7842L5423 7823L5392 7802C 5337 7762 5311 7782 5346 7835C 5365 7865 5371 7865 5400 7842z" stroke="none" fill="#000000" fill-rule="nonzero" />
        <path d="M5132 7247C 5115 7229 5095 7200 5089 7182C 5079 7154 5080 7146 5095 7130C 5122 7100 5167 7104 5201 7141C 5238 7181 5249 7234 5225 7260C 5199 7289 5168 7285 5132 7247zM5204 7206C 5187 7149 5120 7116 5120 7166C 5120 7200 5178 7254 5197 7238C 5205 7232 5208 7219 5204 7206z" stroke="none" fill="#000000" fill-rule="nonzero" />
        <path d="M4701 5904C 4675 5870 4674 5836 4700 5810C 4723 5787 4730 5786 4763 5801C 4810 5822 4824 5889 4788 5914C 4755 5937 4724 5933 4701 5904zM4775 5880C 4784 5866 4762 5830 4744 5830C 4727 5830 4716 5854 4724 5875C 4730 5892 4766 5895 4775 5880z" stroke="none" fill="#000000" fill-rule="nonzero" />
        <path d="M4475 5343C 4413 5328 4386 5244 4435 5222C 4491 5196 4537 5221 4547 5282C 4556 5339 4535 5357 4475 5343zM4512 5275C 4503 5256 4493 5250 4470 5250C 4420 5250 4432 5301 4485 5312C 4515 5319 4525 5304 4512 5275z" stroke="none" fill="#000000" fill-rule="nonzero" />
        <path d="M4296 4726C 4265 4685 4263 4659 4290 4635C 4312 4615 4353 4621 4383 4647C 4408 4670 4405 4725 4378 4744C 4344 4768 4325 4763 4296 4726zM4368 4692C 4371 4676 4364 4667 4345 4660C 4298 4642 4284 4668 4323 4701C 4350 4723 4364 4721 4368 4692z" stroke="none" fill="#000000" fill-rule="nonzero" />
        <path d="M4250 3991C 4199 3941 4218 3870 4283 3870C 4333 3870 4369 3951 4338 3992C 4313 4024 4282 4024 4250 3991zM4316 3967C 4319 3959 4316 3941 4310 3926C 4303 3906 4294 3899 4278 3902C 4249 3906 4243 3936 4266 3961C 4286 3983 4308 3986 4316 3967z" stroke="none" fill="#000000" fill-rule="nonzero" />
        <path d="M4223 3230C 4189 3216 4177 3185 4190 3145C 4204 3102 4238 3090 4275 3114C 4309 3136 4311 3201 4278 3224C 4253 3242 4253 3242 4223 3230zM4267 3184C 4274 3166 4261 3139 4242 3132C 4224 3126 4206 3169 4221 3186C 4236 3205 4259 3204 4267 3184z" stroke="none" fill="#000000" fill-rule="nonzero" />
        <path d="M5106 5235C 5052 5181 5103 5125 5173 5161C 5201 5176 5210 5189 5210 5216C 5210 5251 5136 5265 5106 5235zM5180 5209C 5180 5200 5147 5180 5131 5180C 5114 5180 5118 5208 5137 5218C 5155 5229 5180 5223 5180 5209z" stroke="none" fill="#000000" fill-rule="nonzero" />
        <path d="M5094 4672C 5062 4645 5051 4618 5061 4592C 5073 4561 5096 4554 5135 4573C 5160 4585 5169 4596 5173 4622C 5182 4685 5141 4711 5094 4672zM5140 4635C 5140 4614 5116 4590 5096 4590C 5084 4590 5091 4624 5107 4642C 5129 4667 5140 4665 5140 4635z" stroke="none" fill="#000000" fill-rule="nonzero" />
        <path d="M5005 3946C 4970 3911 4970 3857 5006 3834C 5030 3818 5033 3818 5058 3837C 5096 3865 5108 3904 5089 3938C 5069 3974 5037 3977 5005 3946zM5064 3921C 5068 3916 5066 3900 5060 3885C 5049 3855 5017 3854 5012 3883C 5006 3915 5049 3946 5064 3921z" stroke="none" fill="#000000" fill-rule="nonzero" />
        <path d="M4995 3155C 4964 3125 4963 3098 4993 3066C 5042 3011 5110 3044 5110 3123C 5110 3178 5038 3199 4995 3155zM5069 3136C 5088 3114 5065 3068 5037 3072C 5008 3076 5001 3119 5026 3137C 5048 3153 5055 3153 5069 3136z" stroke="none" fill="#000000" fill-rule="nonzero" />
        <path d="M3381 7710C 3242 7681 3117 7617 2977 7505C 2756 7327 2597 7091 2534 6845C 2512 6758 2509 6730 2513 6630C 2519 6471 2540 6418 2634 6325C 2718 6241 2768 6221 2905 6213C 3384 6185 3944 6798 3917 7320C 3913 7404 3908 7423 3875 7487C 3833 7569 3752 7654 3700 7671C 3681 7677 3657 7690 3647 7699C 3625 7717 3453 7725 3381 7710zM3597 7617C 3625 7609 3660 7596 3675 7586C 3698 7571 3699 7566 3688 7553C 3676 7539 3677 7538 3696 7548C 3713 7557 3720 7557 3730 7545C 3736 7537 3738 7525 3734 7519C 3730 7512 3731 7510 3738 7514C 3744 7517 3757 7509 3769 7495C 3833 7413 3845 7214 3795 7060C 3730 6858 3617 6694 3445 6550C 3404 6516 3373 6484 3375 6479C 3378 6475 3375 6468 3369 6464C 3361 6460 3360 6461 3364 6468C 3376 6488 3361 6481 3299 6439C 3218 6384 3089 6324 3010 6304C 2847 6263 2688 6334 2622 6479C 2589 6550 2581 6691 2603 6795C 2649 7010 2804 7259 2985 7411C 3099 7506 3296 7604 3410 7623C 3464 7632 3548 7629 3597 7617z" stroke="none" fill="#000000" fill-rule="nonzero" />
        <path d="M3239 7370C 3139 7358 3010 7284 2931 7194C 2872 7127 2835 7004 2844 6907C 2852 6821 2884 6757 2944 6707C 3040 6628 3120 6614 3290 6646C 3459 6679 3556 6740 3606 6845C 3627 6889 3630 6909 3630 7023C 3630 7110 3626 7161 3616 7184C 3598 7227 3541 7290 3478 7336C 3436 7367 3420 7373 3367 7375C 3333 7377 3275 7375 3239 7370z" stroke="none" fill="#000000" fill-rule="nonzero" />
        <path d="M6200 7356C 6034 7321 5840 7205 5714 7067C 5480 6809 5362 6444 5429 6181C 5466 6033 5550 5926 5677 5863C 5745 5829 5760 5826 5858 5822C 5947 5818 5980 5821 6043 5839C 6313 5913 6558 6134 6700 6433C 6768 6575 6794 6684 6794 6835C 6794 6923 6789 6971 6776 7015C 6727 7178 6625 7292 6482 7341C 6408 7367 6283 7373 6200 7356zM6479 7242C 6744 7112 6776 6717 6551 6359C 6446 6192 6329 6081 6149 5980C 6082 5942 6050 5930 6022 5931C 6002 5932 5959 5927 5927 5921C 5783 5891 5620 5972 5551 6109C 5481 6245 5483 6454 5555 6646C 5653 6907 5861 7130 6087 7218C 6199 7262 6230 7268 6335 7268C 6412 7268 6433 7264 6479 7242z" stroke="none" fill="#000000" fill-rule="nonzero" />
        <path d="M6028 7045C 5975 7031 5875 6972 5844 6938C 5772 6857 5711 6647 5723 6518C 5727 6471 5737 6446 5771 6394C 5796 6354 5827 6321 5849 6309C 5869 6298 5901 6279 5920 6267C 5952 6247 5967 6245 6095 6246C 6261 6246 6266 6248 6372 6352C 6492 6471 6537 6587 6518 6733C 6508 6809 6461 6899 6413 6936C 6392 6952 6366 6974 6355 6986C 6343 6998 6312 7020 6286 7034C 6244 7056 6225 7060 6156 7059C 6111 7059 6054 7052 6028 7045z" stroke="none" fill="#000000" fill-rule="nonzero" />
        <path d="M2474 2406C 2464 2379 2475 2347 2502 2327C 2525 2310 2535 2308 2557 2316C 2580 2324 2585 2332 2583 2354C 2582 2370 2573 2391 2564 2401C 2543 2424 2482 2427 2474 2406zM2515 2380C 2518 2375 2516 2370 2511 2370C 2505 2370 2500 2375 2500 2380C 2500 2386 2502 2390 2504 2390C 2507 2390 2512 2386 2515 2380z" stroke="none" fill="#000000" fill-rule="nonzero" />
        <path d="M2845 2240C 2818 2210 2835 2170 2882 2152C 2928 2134 2950 2147 2950 2191C 2950 2240 2876 2274 2845 2240zM2909 2211C 2917 2206 2920 2195 2916 2185C 2910 2170 2907 2169 2888 2182C 2876 2190 2864 2202 2862 2208C 2858 2222 2889 2224 2909 2211z" stroke="none" fill="#000000" fill-rule="nonzero" />
        <path d="M3216 2114C 3208 2093 3209 2047 3218 2034C 3222 2028 3235 2018 3248 2011C 3303 1982 3346 2064 3300 2110C 3276 2134 3225 2137 3216 2114zM3275 2080C 3289 2065 3291 2057 3282 2048C 3265 2031 3240 2047 3240 2075C 3240 2105 3251 2107 3275 2080z" stroke="none" fill="#000000" fill-rule="nonzero" />
        <path d="M3576 1995C 3551 1970 3560 1939 3599 1913C 3662 1870 3723 1894 3701 1952C 3689 1985 3668 2000 3628 2007C 3603 2010 3589 2007 3576 1995zM3644 1970C 3670 1961 3682 1920 3660 1920C 3643 1920 3590 1950 3590 1959C 3590 1981 3607 1984 3644 1970z" stroke="none" fill="#000000" fill-rule="nonzero" />
        <path d="M3972 1888C 3937 1853 3976 1800 4036 1800C 4072 1800 4083 1818 4074 1856C 4064 1896 4000 1916 3972 1888zM4048 1847C 4051 1832 4046 1829 4023 1832C 4006 1834 3994 1842 3992 1853C 3989 1868 3994 1871 4017 1868C 4034 1866 4046 1858 4048 1847z" stroke="none" fill="#000000" fill-rule="nonzero" />
        <path d="M4340 1821C 4321 1785 4328 1743 4356 1721C 4410 1679 4463 1702 4458 1765C 4456 1796 4449 1807 4425 1821C 4385 1844 4353 1844 4340 1821zM4413 1794C 4434 1786 4436 1744 4414 1736C 4406 1733 4390 1735 4379 1740C 4350 1756 4355 1819 4384 1805C 4390 1802 4403 1797 4413 1794z" stroke="none" fill="#000000" fill-rule="nonzero" />
        <path d="M8216 1938C 8196 1909 8196 1897 8218 1877C 8263 1836 8340 1853 8340 1904C 8340 1958 8247 1983 8216 1938zM8300 1910C 8300 1905 8287 1900 8270 1900C 8254 1900 8240 1905 8240 1910C 8240 1916 8254 1920 8270 1920C 8287 1920 8300 1916 8300 1910z" stroke="none" fill="#000000" fill-rule="nonzero" />
        <path d="M7807 1892C 7771 1852 7804 1800 7865 1800C 7938 1800 7951 1889 7880 1904C 7832 1913 7825 1912 7807 1892zM7874 1864C 7883 1861 7890 1854 7890 1848C 7890 1834 7837 1843 7832 1858C 7828 1871 7848 1874 7874 1864z" stroke="none" fill="#000000" fill-rule="nonzero" />
        <path d="M7451 1861C 7424 1834 7425 1825 7455 1795C 7483 1766 7516 1763 7548 1786C 7590 1815 7566 1863 7503 1876C 7479 1881 7467 1877 7451 1861zM7528 1822C 7531 1812 7524 1809 7504 1812C 7489 1814 7475 1821 7472 1828C 7469 1838 7476 1841 7496 1838C 7511 1836 7525 1829 7528 1822z" stroke="none" fill="#000000" fill-rule="nonzero" />
        <path d="M7072 1854C 7021 1818 7064 1740 7136 1740C 7167 1740 7200 1761 7200 1781C 7200 1796 7169 1854 7156 1862C 7137 1875 7096 1871 7072 1854zM7150 1805C 7150 1790 7144 1780 7136 1780C 7108 1780 7090 1792 7090 1811C 7090 1825 7097 1830 7120 1830C 7145 1830 7150 1826 7150 1805z" stroke="none" fill="#000000" fill-rule="nonzero" />
        <path d="M6663 1824C 6656 1821 6650 1805 6650 1789C 6650 1768 6657 1757 6680 1745C 6717 1726 6754 1726 6774 1746C 6794 1766 6794 1770 6770 1798C 6751 1822 6690 1836 6663 1824zM6750 1780C 6750 1775 6739 1770 6726 1770C 6712 1770 6698 1775 6695 1780C 6691 1786 6702 1790 6719 1790C 6736 1790 6750 1786 6750 1780z" stroke="none" fill="#000000" fill-rule="nonzero" />
        <path d="M6258 1809C 6204 1789 6214 1730 6276 1704C 6315 1688 6351 1694 6375 1720C 6393 1739 6388 1780 6368 1780C 6362 1780 6352 1787 6346 1794C 6331 1814 6290 1821 6258 1809zM6347 1766C 6350 1763 6350 1754 6347 1745C 6335 1716 6260 1734 6260 1767C 6260 1780 6268 1782 6301 1777C 6323 1774 6344 1769 6347 1766z" stroke="none" fill="#000000" fill-rule="nonzero" />
        <path d="M5390 1791C 5376 1763 5378 1745 5398 1727C 5427 1700 5466 1696 5499 1716C 5534 1737 5542 1777 5513 1786C 5503 1789 5487 1796 5478 1801C 5447 1817 5402 1812 5390 1791zM5488 1766C 5497 1756 5477 1740 5456 1740C 5430 1740 5406 1762 5418 1774C 5425 1781 5479 1775 5488 1766z" stroke="none" fill="#000000" fill-rule="nonzero" />
        <path d="M5787 1792C 5736 1736 5829 1661 5895 1704C 5929 1726 5926 1752 5888 1784C 5851 1814 5810 1818 5787 1792zM5858 1764C 5888 1743 5886 1730 5851 1730C 5816 1730 5795 1751 5812 1768C 5827 1783 5831 1783 5858 1764z" stroke="none" fill="#000000" fill-rule="nonzero" />
        <path d="M5056 1784C 5038 1766 5035 1728 5050 1699C 5058 1685 5071 1680 5103 1680C 5153 1680 5170 1693 5170 1731C 5170 1784 5091 1820 5056 1784zM5114 1760C 5128 1755 5140 1744 5140 1735C 5140 1719 5098 1704 5081 1715C 5069 1722 5066 1753 5077 1763C 5085 1772 5084 1772 5114 1760z" stroke="none" fill="#000000" fill-rule="nonzero" />
        <path d="M2093 3905C 2093 3883 2095 3875 2097 3888C 2099 3900 2099 3918 2097 3928C 2094 3937 2092 3927 2093 3905z" stroke="none" fill="#000000" fill-rule="nonzero" />
        <path d="M2083 3815C 2083 3788 2085 3777 2087 3793C 2089 3808 2089 3830 2087 3843C 2085 3855 2083 3843 2083 3815z" stroke="none" fill="#000000" fill-rule="nonzero" />
        <path d="M2073 3670C 2073 3623 2075 3604 2077 3628C 2079 3651 2079 3689 2077 3713C 2075 3736 2073 3717 2073 3670z" stroke="none" fill="#000000" fill-rule="nonzero" />
        <path d="M2062 3450C 2062 3436 2064 3431 2067 3438C 2069 3444 2069 3456 2067 3463C 2064 3469 2062 3464 2062 3450z" stroke="none" fill="#000000" fill-rule="nonzero" />
	</g>
</g>
</svg>